<svg width="24" height="24" viewBox="0 0 24 24" fill="none" xmlns="http://www.w3.org/2000/svg">
<g clip-path="url(#clip0_1086_1207)">
<path fill-rule="evenodd" clip-rule="evenodd" d="M14.5715 0.85714C14.5713 0.674272 14.5128 0.49623 14.4042 0.349035C14.2957 0.20184 14.143 0.0932065 13.9683 0.0390104C13.7937 -0.0151857 13.6063 -0.0121036 13.4335 0.0478064C13.2607 0.107716 13.1116 0.221314 13.008 0.371997L8.6006 6.78343L2.19431 0.37714C2.07661 0.25082 1.93466 0.149502 1.77695 0.07923C1.61924 0.00895803 1.44899 -0.028828 1.27635 -0.0318739C1.10372 -0.0349198 0.93224 -0.00316324 0.772146 0.0615014C0.612052 0.126166 0.466623 0.222414 0.344534 0.344503C0.222444 0.466592 0.126196 0.612022 0.0615319 0.772116C-0.00313272 0.93221 -0.0348893 1.10369 -0.0318434 1.27632C-0.0287974 1.44896 0.00898854 1.61921 0.0792605 1.77692C0.149532 1.93463 0.250851 2.07658 0.377171 2.19428L21.8057 23.6229C21.9234 23.7492 22.0654 23.8505 22.2231 23.9208C22.3808 23.991 22.5511 24.0288 22.7237 24.0319C22.8963 24.0349 23.0678 24.0032 23.2279 23.9385C23.388 23.8738 23.5334 23.7776 23.6555 23.6555C23.7776 23.5334 23.8739 23.388 23.9385 23.2279C24.0032 23.0678 24.0349 22.8963 24.0319 22.7237C24.0289 22.551 23.9911 22.3808 23.9208 22.2231C23.8505 22.0654 23.7492 21.9234 23.6229 21.8057L16.8806 15.0634L20.4206 9.91371C20.509 9.78502 20.5605 9.63464 20.5696 9.4788C20.5788 9.32296 20.5452 9.16759 20.4725 9.02944C20.3998 8.89129 20.2908 8.77561 20.1572 8.6949C20.0235 8.61418 19.8704 8.57149 19.7143 8.57143H14.5715V0.85714ZM3.57946 14.0863L5.8886 10.7263L14.1686 19.0063L10.992 23.628C10.8884 23.7787 10.7393 23.8923 10.5666 23.9522C10.3938 24.0121 10.2064 24.0152 10.0317 23.961C9.85706 23.9068 9.70432 23.7982 9.59581 23.651C9.4873 23.5038 9.42871 23.3257 9.4286 23.1429V15.4286H4.28574C4.12964 15.4285 3.97651 15.3858 3.84289 15.3051C3.70928 15.2244 3.60024 15.1087 3.52755 14.9706C3.45485 14.8324 3.42127 14.677 3.43042 14.5212C3.43957 14.3654 3.4911 14.215 3.57946 14.0863Z" fill="white"/>
</g>
<defs>
<clipPath id="clip0_1086_1207">
<rect width="24" height="24" fill="white"/>
</clipPath>
</defs>
</svg>
