<svg width="18" height="24" viewBox="0 0 18 24" fill="none" xmlns="http://www.w3.org/2000/svg">
<path fill-rule="evenodd" clip-rule="evenodd" d="M11.5714 0.857156C11.5713 0.674288 11.5127 0.496247 11.4042 0.349051C11.2957 0.201856 11.1429 0.0932226 10.9683 0.0390265C10.7936 -0.0151696 10.6062 -0.0120875 10.4335 0.0478225C10.2607 0.107732 10.1116 0.22133 10.008 0.372013L0.579404 14.0863C0.491048 14.215 0.439516 14.3654 0.430367 14.5212C0.421219 14.677 0.454803 14.8324 0.527494 14.9706C0.600185 15.1087 0.709223 15.2244 0.842841 15.3051C0.97646 15.3858 1.12958 15.4285 1.28569 15.4286H6.42855V23.1429C6.42866 23.3257 6.48725 23.5038 6.59576 23.651C6.70427 23.7982 6.85701 23.9068 7.03166 23.961C7.20631 24.0152 7.39372 24.0121 7.5665 23.9522C7.73928 23.8923 7.88836 23.7787 7.99198 23.628L17.4205 9.91373C17.5089 9.78503 17.5604 9.63465 17.5696 9.47882C17.5787 9.32298 17.5451 9.1676 17.4725 9.02945C17.3998 8.8913 17.2907 8.77563 17.1571 8.69491C17.0235 8.6142 16.8704 8.57151 16.7143 8.57144H11.5714V0.857156Z" fill="black"/>
</svg>
