<svg width="24" height="24" viewBox="0 0 24 24" fill="none" xmlns="http://www.w3.org/2000/svg">
<g id="nimbus:qr-code">
<path id="Vector" d="M6.07 20.725H2.86V16.945C2.86 16.42 2.44 16.015 1.93 16.015C1.42 16.015 1 16.435 1 16.945V20.725C1 21.76 1.84 22.6 2.875 22.6H6.07C6.595 22.6 7 22.18 7 21.67C7 21.16 6.58 20.74 6.07 20.74V20.725ZM22.555 16.015C22.03 16.015 21.625 16.435 21.625 16.945V20.725H18.445C17.92 20.725 17.515 21.145 17.515 21.655C17.515 22.165 17.935 22.585 18.445 22.585H21.625C22.66 22.585 23.5 21.745 23.5 20.71V16.93C23.5 16.405 23.08 16 22.57 16L22.555 16.015Z" fill="black"/>
<g id="Vector_2">
<path d="M18.195 1H21.36C22.395 1 23.235 1.84 23.235 2.875V6.64C23.235 7.15 22.815 7.57 22.305 7.57C21.795 7.57 21.375 7.165 21.375 6.64V2.86H18.195C17.685 2.86 17.265 2.44 17.265 1.93C17.265 1.42 17.67 1 18.195 1Z" fill="black"/>
<path d="M2.61 6.655C2.61 7.165 2.205 7.585 1.68 7.585V7.6C1.17 7.6 0.75 7.195 0.75 6.67V2.89C0.75 1.855 1.59 1.015 2.625 1.015H5.835C6.345 1.015 6.765 1.435 6.765 1.945C6.765 2.455 6.36 2.875 5.835 2.875H2.61V6.655Z" fill="black"/>
</g>
<path id="Vector_3" d="M11.33 14.9L8.22377 14.9L8.22377 13.025L11.33 13.025L11.33 14.9ZM11.33 17.6L5.11877 17.6L5.11877 15.725L11.33 15.725L11.33 17.6ZM16.725 10.325L13.775 10.325L13.775 8.45004L16.725 8.45004L16.725 10.325ZM19.83 7.62504L13.775 7.62504L13.775 5.75004L19.83 5.75004L19.83 7.62504Z" fill="black"/>
<path id="Vector_4" fill-rule="evenodd" clip-rule="evenodd" d="M5.00003 6.875L5.00002 9.185C5.00002 10.22 5.84002 11.06 6.87502 11.06L9.33002 11.06C10.365 11.06 11.205 10.22 11.205 9.185L11.205 6.875C11.205 5.84 10.365 5 9.33002 5L6.87503 5C5.84003 5 5.00003 5.84 5.00003 6.875ZM6.87502 9.185L9.33002 9.185L9.33002 6.875L6.87503 6.875L6.87502 9.185Z" fill="black"/>
<path id="Vector_5" fill-rule="evenodd" clip-rule="evenodd" d="M15.65 18.35L17.955 18.35C18.99 18.35 19.83 17.51 19.83 16.475L19.83 14.165C19.83 13.13 18.99 12.29 17.955 12.29L15.65 12.29C14.615 12.29 13.775 13.13 13.775 14.165L13.775 16.475C13.775 17.51 14.615 18.35 15.65 18.35ZM17.955 14.165L15.65 14.165L15.65 16.475L17.955 16.475L17.955 14.165Z" fill="black"/>
</g>
</svg>
